
      <svg data-logo="logo" xmlns="http://www.w3.org/2000/svg" viewBox="0 0 116 42">
        <g id="logogram" transform="translate(0, 1) rotate(0) "><path d="M15 0L20.4545 5.33333L0 25.3333V14.6667L15 0Z" fill="#06D1D4"/><path d="M2.90827 28.177L15 40L30 25.3334V14.6667L20.4545 5.33337L0 25.3334L0.0041688 25.3375L20.4545 5.33337V20.6667L11.25 29.6667V20.1324L2.90827 28.177Z" fill="#3628A0"/></g>
        <g id="logotype" transform="translate(36, 8)"><path fill="#111111" d="M21.89 26L15.63 26L6.67 1.15L12.16 1.15L18.77 20.02L25.39 1.15L30.89 1.15L21.89 26ZM37.12 26L31.86 26L31.86 7.24L37.12 7.24L37.12 26ZM37.19 4.93L31.76 4.93L31.76 0.73L37.19 0.73L37.19 4.93ZM50.94 26.42L50.94 26.42Q48.98 26.42 47.53 25.58Q46.08 24.74 45.27 23.23L45.27 23.23L45.16 26L40.16 26L40.16 1.15L45.41 1.15L45.41 9.90Q46.15 8.60 47.58 7.71Q49.02 6.82 50.94 6.82L50.94 6.82Q53.32 6.82 55.07 8.03Q56.82 9.23 57.78 11.44Q58.75 13.64 58.75 16.62L58.75 16.62Q58.75 19.59 57.78 21.80Q56.82 24.00 55.07 25.21Q53.32 26.42 50.94 26.42ZM49.47 22.39L49.47 22.39Q51.22 22.39 52.29 20.87Q53.36 19.35 53.36 16.62L53.36 16.62Q53.36 13.89 52.31 12.37Q51.26 10.84 49.51 10.84L49.51 10.84Q48.21 10.84 47.28 11.53Q46.36 12.21 45.88 13.50Q45.41 14.80 45.41 16.62L45.41 16.62Q45.41 18.41 45.88 19.70Q46.36 20.99 47.28 21.70Q48.21 22.39 49.47 22.39ZM69.39 26.42L69.39 26.42Q66.52 26.42 64.40 25.21Q62.28 24.00 61.11 21.80Q59.94 19.59 59.94 16.62L59.94 16.62Q59.94 13.64 61.11 11.46Q62.28 9.27 64.38 8.04Q66.48 6.82 69.35 6.82L69.35 6.82Q72.15 6.82 74.22 8.04Q76.28 9.27 77.42 11.54Q78.56 13.82 78.56 16.97L78.56 16.97L78.56 18.02L65.36 18.02Q65.47 20.26 66.57 21.34Q67.67 22.43 69.49 22.43L69.49 22.43Q70.82 22.43 71.71 21.87Q72.61 21.31 72.99 20.16L72.99 20.16L78.28 20.47Q77.54 23.27 75.16 24.84Q72.78 26.42 69.39 26.42ZM65.36 14.80L65.36 14.80L73.17 14.80Q73.06 12.73 72.03 11.72Q71.00 10.70 69.35 10.70L69.35 10.70Q67.71 10.70 66.64 11.77Q65.57 12.84 65.36 14.80Z"/></g>
        
      </svg>
    